<?xml version="1.0" encoding="utf-8"?>
<!-- Generator: Adobe Illustrator 14.0.0, SVG Export Plug-In . SVG Version: 6.00 Build 43363)  -->
<!DOCTYPE svg PUBLIC "-//W3C//DTD SVG 1.1//EN" "http://www.w3.org/Graphics/SVG/1.1/DTD/svg11.dtd">
<svg version="1.1" xmlns="http://www.w3.org/2000/svg" xmlns:xlink="http://www.w3.org/1999/xlink" x="0px" y="0px" width="144px"
	 height="144px" viewBox="0 0 144 144" enable-background="new 0 0 144 144" xml:space="preserve">
<g id="BG">
	<path fill="#C34C5D" d="M144,72c0-20-7.1-37-21.3-51.2C108.8,6.9,92,0,72,0S35,6.9,20.9,20.8C7,35,0,52,0,72s7,36.9,20.9,50.7
		C35,136.9,52,144,72,144s36.8-7.1,50.7-21.3C136.9,108.9,144,92,144,72z"/>
	<path fill="#3C3C3C" d="M102,72c0-8.2-3-15.3-8.8-21.2C87.3,44.9,80.3,42,72,42c-8.2,0-15.4,2.9-21.2,8.8C45,56.7,42,63.8,42,72
		c0,8.3,3,15.4,8.8,21.2c5.8,5.8,13,8.8,21.2,8.8c8.3,0,15.3-3,21.2-8.8C99,87.4,102,80.3,102,72z M87,72c0,4.2-1.5,7.7-4.4,10.6
		C79.7,85.5,76.2,87,72,87s-7.7-1.5-10.6-4.4C58.5,79.7,57,76.2,57,72s1.5-7.7,4.4-10.6C64.3,58.5,67.8,57,72,57s7.7,1.5,10.6,4.4
		C85.5,64.3,87,67.8,87,72z"/>
	<path fill="#3C3C3C" d="M102,72c0-8.2-3-15.3-8.8-21.2C87.3,44.9,80.3,42,72,42c-8.2,0-15.4,2.9-21.2,8.8C45,56.7,42,63.8,42,72
		c0,8.3,3,15.4,8.8,21.2c5.8,5.8,13,8.8,21.2,8.8c8.3,0,15.3-3,21.2-8.8C99,87.4,102,80.3,102,72z M87,72c0,4.2-1.5,7.7-4.4,10.6
		C79.7,85.5,76.2,87,72,87s-7.7-1.5-10.6-4.4C58.5,79.7,57,76.2,57,72s1.5-7.7,4.4-10.6C64.3,58.5,67.8,57,72,57s7.7,1.5,10.6,4.4
		C85.5,64.3,87,67.8,87,72z"/>
	<path fill="#515151" d="M82.6,82.6C85.5,79.7,87,76.2,87,72s-1.5-7.7-4.4-10.6C79.7,58.5,76.2,57,72,57s-7.7,1.5-10.6,4.4
		C58.5,64.3,57,67.8,57,72s1.5,7.7,4.4,10.6C64.3,85.5,67.8,87,72,87S79.7,85.5,82.6,82.6z"/>
	<path fill="#6F6F6F" d="M58,57h-1v1h1V57z"/>
</g>
<g id="Indicators">
	<g id="pInd15">
		<path fill="#6CAD6F" d="M67.9,54.5l-3.8-9.3l-8.6,9L67.9,54.5z"/>
		<path fill="#6CAD6F" d="M88.1,89.5l-12.4-0.4l3.8,9.3L88.1,89.5z"/>
	</g>
	<path id="pInd14" fill="#6CAD6F" d="M85.1,90.1L87.5,77l5.7-12.1l-11.7-6.3l-9.6-9.3l-9.7,9.3l-11.7,6.3L56.3,77l2.3,13.1l13.3-1.9
		L85.1,90.1z M87,72c0,4.2-1.5,7.7-4.4,10.6C79.7,85.5,76.2,87,72,87s-7.7-1.5-10.6-4.4C58.5,79.7,57,76.2,57,72s1.5-7.7,4.4-10.6
		C64.3,58.5,67.8,57,72,57s7.7,1.5,10.6,4.4C85.5,64.3,87,67.8,87,72z"/>
	<path id="pInd13" fill="#3E7FAE" d="M42,70.2c2,0.6,4,0.5,6.1-0.4c2.6-1,4.4-2.9,5.4-5.5c1.1-2.5,1.1-5.1,0-7.6
		c-0.9-2-2.1-3.6-3.9-4.7c-2.1,2.5-4,5.2-5.3,8.5C43,63.8,42.2,67,42,70.2z"/>
	<path id="pInd12" fill="#6CAD6F" d="M56.1,76.7c-0.5-1.5-0.6-3-0.6-4.7s0.1-3.2,0.6-4.7L43,72L56.1,76.7z"/>
	<path id="pInd11" fill="#D17335" d="M53.5,79.7c-1-2.6-2.8-4.4-5.4-5.4c-2-0.8-4.1-1.1-6.1-0.5c0.2,3.2,1,6.5,2.3,9.7
		c1.3,3.3,3.1,6.1,5.2,8.5c1.9-1,3.1-2.5,4-4.6C54.6,84.8,54.6,82.2,53.5,79.7z"/>
	<g id="pInd10">
		<path fill="#6CAD6F" d="M85.2,63.8C85,63.9,84.9,64,84.8,64c1.1,1.8,1.8,3.8,2.1,6c0.1-0.1,0.3-0.2,0.5-0.2
			c0.8-0.3,1.4-0.8,1.8-1.6c0.3-0.8,0.3-1.6,0-2.4C89,65,88.5,64.3,87.7,64C86.9,63.6,86,63.5,85.2,63.8z"/>
		<path fill="#6CAD6F" d="M87.8,71.7c-0.3-0.1-0.6-0.2-0.8-0.2c0,0.2,0,0.3,0,0.5c0,3-0.8,5.7-2.3,8c0.3,0.1,0.5,0.2,0.8,0.3
			c1.3,0.3,2.4,0.2,3.5-0.4c1-0.7,1.7-1.6,2-2.7c0.3-1.2,0.2-2.4-0.4-3.4C90,72.7,89.1,72,87.8,71.7z"/>
		<path fill="#6CAD6F" d="M65.4,57.8c-0.7-0.8-1.6-1.3-2.8-1.3c-1.1-0.2-2.1,0.2-3,0.9c-0.8,0.7-1.2,1.6-1.4,2.8
			c-0.1,1,0.3,2,0.9,2.8c0.2,0.2,0.4,0.4,0.5,0.5c0.5-0.7,1.2-1.5,1.8-2.1c1.4-1.4,2.8-2.4,4.4-3.1C65.7,58.2,65.5,58,65.4,57.8z"/>
		<path fill="#6CAD6F" d="M59.2,64c-0.2,0-0.399-0.2-0.7-0.2c-1.2-0.3-2.4-0.2-3.4,0.4C54,64.9,53.3,65.8,53,67
			c-0.4,1.2-0.2,2.3,0.5,3.4c0.5,1.1,1.5,1.7,2.6,2.1c0.4,0,0.7,0,0.9,0.1c0-0.2,0-0.4,0-0.6C57,69,57.8,66.4,59.2,64z"/>
		<path fill="#6CAD6F" d="M57.1,74.2c-0.1,0-0.2,0-0.4,0c-0.8,0.3-1.5,0.9-1.8,1.7c-0.4,0.8-0.4,1.6-0.1,2.4
			c0.3,0.9,0.8,1.5,1.7,1.8c0.7,0.4,1.5,0.4,2.4,0c0.1,0,0.2-0.1,0.3-0.1C58.1,78.2,57.4,76.3,57.1,74.2z"/>
		<path fill="#6CAD6F" d="M76.5,86.4C75,86.8,73.5,87,72,87s-3-0.2-4.4-0.6c-0.1,0.2-0.1,0.5-0.1,0.8c0,1.3,0.5,2.3,1.3,3.2
			c0.899,0.8,2,1.3,3.2,1.3s2.3-0.5,3.2-1.3c0.8-0.9,1.3-1.9,1.3-3.2C76.5,86.9,76.5,86.6,76.5,86.4z"/>
		<path fill="#515151" d="M82.6,82.6C85.5,79.7,87,76.2,87,72s-1.5-7.7-4.4-10.6C79.7,58.5,76.2,57,72,57s-7.7,1.5-10.6,4.4
			C58.5,64.3,57,67.8,57,72s1.5,7.7,4.4,10.6C64.3,85.5,67.8,87,72,87S79.7,85.5,82.6,82.6z"/>
	</g>
	<path id="pInd9" fill="#C0627A" d="M64.3,90.5c-2.5-1-5-1-7.5,0c-2.101,0.9-3.7,2.2-4.8,4c2.5,2.1,5.3,3.9,8.5,5.3
		c3.3,1.3,6.5,2.1,9.8,2.2c0.5-2,0.399-4-0.5-6.1C68.8,93.4,66.9,91.5,64.3,90.5z"/>
	<path id="pInd8" fill="#6CAD6F" d="M76.7,88c-1.5,0.4-3,0.5-4.7,0.5s-3.2-0.1-4.7-0.5l4.7,13L76.7,88z"/>
	<g id="pInd7">
		<path fill="#6CAD6F" d="M62.3,57l8.5-9l-12.3-0.2L62.3,57z"/>
		<path fill="#6CAD6F" d="M85.2,96.4L81.3,87l-8.5,9L85.2,96.4z"/>
	</g>
	<path id="pInd6" fill="#E35C35" d="M71.9,49.5L49.5,71.9l22.4,22.5l22.4-22.5L71.9,49.5z M87,72c0,4.2-1.5,7.7-4.4,10.6
		C79.7,85.5,76.2,87,72,87s-7.7-1.5-10.6-4.4C58.5,79.7,57,76.2,57,72s1.5-7.7,4.4-10.6C64.3,58.5,67.8,57,72,57s7.7,1.5,10.6,4.4
		C85.5,64.3,87,67.8,87,72z"/>
	<path id="pInd5" fill="#8AB3DA" d="M99.8,83.5c1.3-3.3,2.1-6.5,2.2-9.7c-2-0.6-4-0.4-6.1,0.4c-2.6,1.1-4.4,2.9-5.4,5.5
		c-1,2.5-1,5.1,0,7.7c0.8,2,2.2,3.6,4,4.6C96.7,89.5,98.4,86.7,99.8,83.5z"/>
	<path id="pInd4" fill="#6CAD6F" d="M101,72l-13.1-4.7c0.4,1.5,0.6,3,0.6,4.7s-0.2,3.2-0.6,4.7L101,72z"/>
	<path id="pInd3" fill="#FFD44F" d="M96,69.8c2,0.9,4,1,6,0.5c-0.2-3.3-0.9-6.5-2.2-9.8c-1.4-3.2-3.1-6-5.3-8.5
		c-1.8,1.1-3.2,2.7-4,4.8c-1,2.5-1,5,0,7.5C91.6,66.9,93.4,68.7,96,69.8z"/>
	<g id="pInd2">
		<path fill="#6CAD6F" d="M67.3,56.1c1.5-0.4,3-0.6,4.7-0.6s3.2,0.2,4.7,0.6L72,43L67.3,56.1z"/>
		<path fill="#6CAD6F" d="M83.8,60c0.9,0.8,1.7,1.8,2.4,2.8l5.6-10.9L81,57.7C82,58.3,82.9,59,83.8,60z"/>
		<path fill="#6CAD6F" d="M86.2,81c-0.7,1-1.5,1.9-2.4,2.8c-0.9,0.9-1.8,1.7-2.8,2.3l10.8,5.8L86.2,81z"/>
		<path fill="#6CAD6F" d="M100.2,71.8l-11.8-3.6c0.3,1.2,0.4,2.5,0.4,3.7c0,1.3-0.1,2.4-0.4,3.6L100.2,71.8z"/>
		<path fill="#6CAD6F" d="M51.9,51.9l5.7,10.9c0.7-1,1.4-2,2.4-2.8c0.9-1,1.8-1.7,2.8-2.3L51.9,51.9z"/>
		<path fill="#6CAD6F" d="M55.4,68.2l-11.8,3.7l11.8,3.6c-0.3-1.2-0.4-2.3-0.4-3.6C55,70.7,55.1,69.4,55.4,68.2z"/>
		<path fill="#6CAD6F" d="M60,83.8c-1-0.9-1.7-1.8-2.4-2.8l-5.7,10.9l10.9-5.8C61.8,85.5,60.9,84.7,60,83.8z"/>
		<path fill="#6CAD6F" d="M71.9,88.8c-1.2,0-2.4-0.2-3.6-0.4l3.6,11.7l3.6-11.7C74.3,88.6,73.2,88.8,71.9,88.8z"/>
	</g>
	<path id="pInd1" fill="#E28D9E" d="M87.4,53.5c2.1-0.8,3.6-2.2,4.6-4c-2.4-2.1-5.2-3.8-8.5-5.2C80.2,43,77,42.2,73.8,42
		c-0.5,2-0.3,4,0.5,6.1c1,2.6,2.8,4.4,5.399,5.4C82.2,54.6,84.8,54.5,87.4,53.5z"/>
	<path id="pInd0" fill="#6CAD6F" d="M71.9,43.6l-3.7,11.8c1.2-0.2,2.5-0.4,3.7-0.4c1.3,0,2.4,0.2,3.6,0.4L71.9,43.6z"/>
</g>
<g id="NoteRing">
	<path id="i15" fill="#C34C5D" d="M60.5,44.2c1.7-0.7,3.5-1.2,5.7-1.7L63.1,27c-2.9,0.5-5.7,1.5-8.6,2.7c-3,1.1-5.7,2.6-8,4.1
		L55.3,47C56.8,46,58.5,45,60.5,44.2z"/>
	<path id="i14" fill="#ED0A72" d="M50.9,50.7c1.2-1.3,2.7-2.5,4.6-3.7l-8.9-13.3c-2.4,1.6-4.7,3.6-6.8,5.8c-2.3,2.3-4.3,4.7-5.9,6.9
		l13.2,8.8C48.1,53.7,49.3,52.2,50.9,50.7z"/>
	<path id="i13" fill="#D40E8C" d="M44.3,60.4c0.7-1.7,1.7-3.4,2.8-5.2l-13.2-8.9c-1.6,2.5-3,5.1-4.1,8c-1.3,3-2.2,5.9-2.9,8.7
		l15.6,3C42.9,64.2,43.5,62.3,44.3,60.4z"/>
	<path id="i12" fill="#92278F" d="M42,71.8c0-1.8,0.2-3.8,0.6-5.8l-15.5-3.2c-0.6,2.9-0.9,5.9-0.9,9c0,3.2,0.3,6.2,0.8,9l15.5-3.1
		C42.2,75.9,42,74,42,71.8z"/>
	<path id="i11" fill="#4C2F92" d="M44.2,83.2c-0.7-1.7-1.2-3.5-1.7-5.7l-15.6,3.1c0.7,2.9,1.5,5.7,2.7,8.6c1.3,3,2.7,5.7,4.2,8
		L47,88.4C46,86.9,45,85.1,44.2,83.2z"/>
	<path id="i10" fill="#4A5285" d="M50.7,92.9c-1.2-1.3-2.5-2.8-3.7-4.6l-13.2,8.8c1.6,2.4,3.6,4.8,5.7,6.9c2.3,2.3,4.7,4.3,7,5.9
		l8.7-13.3C53.8,95.6,52.2,94.5,50.7,92.9z"/>
	<path id="i9" fill="#0080C7" d="M60.4,99.5c-1.8-0.7-3.5-1.7-5.3-2.9l-8.9,13.3c2.5,1.6,5.2,3,8,4.1c3,1.2,5.9,2.2,8.7,2.8
		l3.1-15.6C64.2,100.9,62.3,100.2,60.4,99.5z"/>
	<path id="i8" fill="#00A9EC" d="M71.8,101.8c-1.8,0-3.8-0.3-5.8-0.7l-3.2,15.7c2.899,0.5,5.899,0.8,9,0.8c3.2,0,6.2-0.3,9-0.8
		L77.7,101.2C75.9,101.6,74,101.8,71.8,101.8z"/>
	<path id="i7" fill="#00AAB0" d="M83.2,99.5c-1.7,0.6-3.5,1.2-5.7,1.6l3.2,15.7c2.8-0.7,5.6-1.6,8.5-2.7c3-1.2,5.8-2.7,8.1-4.2
		l-8.8-13.1C87,97.8,85.2,98.6,83.2,99.5z"/>
	<path id="i6" fill="#38876E" d="M93,93c-1.3,1.3-2.8,2.5-4.7,3.8l8.9,13.2c2.3-1.6,4.7-3.6,6.8-5.8c2.3-2.2,4.3-4.7,5.9-6.9
		l-13.2-8.8C95.7,90,94.5,91.5,93,93z"/>
	<path id="i5" fill="#009C56" d="M99.4,83.4c-0.7,1.7-1.6,3.5-2.8,5.2l13.2,8.9c1.6-2.5,3-5.1,4.2-8c1.2-3,2.2-5.9,2.8-8.6
		l-15.6-3.1C100.8,79.6,100.2,81.5,99.4,83.4z"/>
	<path id="i4" fill="#9FCC3B" d="M101.8,72c0,1.8-0.3,3.8-0.6,5.8l15.6,3.2c0.5-2.8,0.7-5.8,0.7-9s-0.2-6.2-0.7-9l-15.6,3.2
		C101.6,67.9,101.8,69.8,101.8,72z"/>
	<path id="i3" fill="#EAE611" d="M99.5,60.5c0.7,1.7,1.3,3.5,1.7,5.7l15.6-3.1c-0.6-2.9-1.5-5.7-2.7-8.6c-1.2-3-2.6-5.7-4.1-8
		l-13.2,8.8C97.8,56.8,98.7,58.5,99.5,60.5z"/>
	<path id="i2" fill="#FFC50B" d="M93.1,50.8c1.2,1.2,2.5,2.8,3.7,4.6l13.2-8.9c-1.6-2.3-3.5-4.7-5.7-6.8c-2.3-2.3-4.7-4.3-7-5.9
		L88.5,47C90,48,91.5,49.2,93.1,50.8z"/>
	<path id="i1" fill="#CF963F" d="M83.3,44.3c1.7,0.7,3.5,1.7,5.2,2.9l9-13.2c-2.5-1.7-5.2-3-8-4.2c-3-1.3-6-2.2-8.7-2.8l-3,15.5
		C79.5,43,81.4,43.5,83.3,44.3z"/>
	<path id="i0" fill="#ED1C24" d="M72,42c1.8,0,3.8,0.2,5.8,0.7L81,27c-2.8-0.5-5.8-0.8-9-0.8s-6.2,0.3-9,0.8l3.2,15.5
		C67.9,42.2,69.8,42,72,42z"/>
</g>
<g id="Outside">
	<g id="o0">
		<path fill="#D0D0D0" d="M58,1.3L63.1,27c2.9-0.5,5.9-0.8,8.9-0.8c3.1,0,6.1,0.3,9,0.8l5.1-25.7C81.5,0.4,76.8,0,72,0
			S62.5,0.4,58,1.3z"/>
		<path fill="#6CAD6F" d="M67.3,20c1.5-0.4,3.1-0.6,4.7-0.6c1.7,0,3.3,0.2,4.8,0.6L72,6.9L67.3,20z"/>
	</g>
	<g id="o1">
		<path fill="#DDDDDD" d="M86.1,1.3L81,27c6,1.2,11.5,3.5,16.5,6.9l14.7-21.8C104.2,6.6,95.5,3.1,86.1,1.3z"/>
		<path fill="#E28D9E" d="M100,9.2c-0.8-0.9-1.9-1.4-3.2-1.4c-1.3,0-2.3,0.5-3.1,1.4h-0.1c-0.9,1-1.4,2-1.4,3.2
			c0,0.9,0.3,1.7,0.6,2.4c0.2,0.3,0.4,0.6,0.8,0.9c0.9,0.9,1.9,1.3,3.2,1.3c0.2,0,0.4,0,0.7,0c1-0.1,1.8-0.5,2.5-1.3
			c1-0.9,1.5-2,1.5-3.3C101.5,11.2,101,10.2,100,9.2z"/>
		<path fill="#E28D9E" d="M86.4,18.8l-1.2,0.9c0.5,0.8,1.1,1.6,1.9,2.5c2.8,2.7,6.1,4,9.7,4c0.7,0,1.4,0,2,0l-0.3-1.5
			c-0.5,0-1.1,0.1-1.7,0.1c-3.3,0-6.1-1.3-8.6-3.8C87.5,20.3,86.9,19.6,86.4,18.8z"/>
		<path fill="#E28D9E" d="M87.7,18c0.4,0.8,1,1.4,1.5,2c2.2,2.2,4.7,3.2,7.6,3.2c0.5,0,1,0,1.5,0l-0.2-1.6c-0.4,0.1-0.8,0.1-1.3,0.1
			c-2.5,0-4.6-0.9-6.5-2.7c-0.5-0.6-1-1.2-1.3-1.8L87.7,18z"/>
		<path fill="#E28D9E" d="M97.7,18.6c-0.3,0-0.6,0-0.9,0c-1.6,0-3.1-0.6-4.3-1.8c-0.4-0.3-0.7-0.8-1-1.2l-1.2,0.7
			c0.2,0.6,0.7,1.1,1.1,1.5c1.6,1.6,3.4,2.4,5.4,2.4c0.4,0,0.7-0.1,1.1-0.2L97.7,18.6z"/>
	</g>
	<g id="o2">
		<path fill="#D0D0D0" d="M110.2,46.5L132,32c-2.7-3.9-5.7-7.5-9.2-11c-3.3-3.4-6.9-6.4-10.6-8.9L97.5,33.9c2.3,1.6,4.5,3.4,6.7,5.4
			c0,0.1,0,0.2,0.1,0.2C106.5,41.8,108.5,44.1,110.2,46.5z"/>
		<path fill="#6CAD6F" d="M121.5,36.8l-2-3.8c-0.3,0.3-0.5,0.6-0.8,1c-0.4,0.2-0.7,0.5-1,0.8L121.5,36.8z"/>
		<path fill="#6CAD6F" d="M120.3,31l4.1-1.2l-4.1-1.3c0,0.4,0.1,0.8,0.1,1.3C120.4,30.2,120.3,30.6,120.3,31z"/>
		<path fill="#6CAD6F" d="M118.7,25.6c0.3,0.3,0.5,0.6,0.8,1l2-3.8l-3.8,2C118,25,118.3,25.2,118.7,25.6z"/>
		<path fill="#6CAD6F" d="M114.5,19.8l-1.3,4.2c0.5-0.1,0.8-0.2,1.3-0.2s0.9,0.1,1.3,0.2L114.5,19.8z"/>
		<path fill="#6CAD6F" d="M108.6,29.8c0-0.5,0.1-0.9,0.2-1.3l-4.2,1.3l4.2,1.2C108.7,30.7,108.6,30.2,108.6,29.8z"/>
		<path fill="#6CAD6F" d="M115.8,35.5c-0.5,0.1-0.8,0.2-1.3,0.2s-0.8-0.1-1.3-0.2l1.3,4.2L115.8,35.5z"/>
		<path fill="#6CAD6F" d="M110.3,25.6c0.4-0.4,0.7-0.6,1-0.8l-3.8-2l2,3.8C109.8,26.2,110,25.9,110.3,25.6z"/>
		<path fill="#6CAD6F" d="M110.3,34c-0.3-0.4-0.5-0.7-0.8-1l-2,3.8l3.8-2C111,34.5,110.7,34.2,110.3,34z"/>
	</g>
	<g id="o3">
		<path fill="#DDDDDD" d="M117,63l25.8-5v-0.1C141,48.5,137.4,39.8,132,32l-21.8,14.5C113.6,51.5,115.8,57,117,63z"/>
		<path fill="#FFD44F" d="M132.8,49.5c-0.5-0.5-1-0.7-1.7-0.7c-0.8,0-1.3,0.2-1.9,0.7c-0.4,0.5-0.6,1-0.6,1.7c0,0.8,0.2,1.3,0.6,1.8
			c0.6,0.5,1.1,0.8,1.9,0.8c0.7,0,1.2-0.3,1.7-0.8s0.8-1,0.8-1.8C133.6,50.5,133.3,50,132.8,49.5z"/>
		<path fill="#FFD44F" d="M134.3,54.7c0,0.6,0.3,1.3,0.7,1.7c0.5,0.5,1.1,0.8,1.8,0.8c0.7,0,1.3-0.3,1.8-0.8
			c0.5-0.4,0.7-1.1,0.7-1.7c0-0.7-0.2-1.4-0.7-1.9c-0.5-0.4-1.1-0.6-1.8-0.6c-0.7,0-1.3,0.2-1.8,0.6C134.6,53.3,134.3,54,134.3,54.7
			z"/>
		<path fill="#FFD44F" d="M119.5,50.2c0.5-0.4,0.7-1,0.7-1.7s-0.2-1.3-0.7-1.8s-1-0.7-1.7-0.7c-0.8,0-1.3,0.2-1.8,0.7
			s-0.8,1.1-0.8,1.8s0.3,1.3,0.8,1.7c0.5,0.5,1,0.8,1.8,0.8C118.5,51,119,50.7,119.5,50.2z"/>
		<path fill="#FFD44F" d="M127.2,49.2c0-0.7-0.2-1.4-0.7-1.9c-0.5-0.4-1.1-0.6-1.8-0.6c-0.7,0-1.3,0.2-1.8,0.6
			c-0.4,0.5-0.7,1.2-0.7,1.9c0,0.6,0.3,1.3,0.7,1.7c0.5,0.5,1.1,0.8,1.8,0.8c0.7,0,1.3-0.3,1.8-0.8C127,50.5,127.2,49.8,127.2,49.2z
			"/>
	</g>
	<g id="o4">
		<path fill="#D0D0D0" d="M117,63v0.1c0.5,2.9,0.8,5.8,0.8,8.9c0,3-0.3,6-0.8,9l25.7,5.1c0.9-4.6,1.3-9.3,1.3-14.1s-0.4-9.5-1.2-14
			L117,63z"/>
		<path fill="#6CAD6F" d="M137,72l-13.1-4.7c0.4,1.5,0.6,3,0.6,4.7s-0.2,3.2-0.6,4.7L137,72z"/>
	</g>
	<g id="o5">
		<path fill="#DDDDDD" d="M117,81L117,81c-1.2,6-3.5,11.4-6.9,16.5l21.8,14.6c5.4-8,9-16.6,10.8-26L117,81z"/>
		<path fill="#8AB3DA" d="M133.8,94.5c0-2-0.7-3.5-2-4.9c-1.4-1.3-3-2-4.8-2v13.7c1.8-0.1,3.4-0.7,4.8-2
			C133.1,98,133.8,96.4,133.8,94.5z"/>
		<path fill="#D0D0D0" d="M127,101.3V87.6h-0.1c-1.9,0-3.5,0.6-4.9,2c-1.3,1.4-2,2.9-2,4.9c0,1.9,0.7,3.5,2,4.8c1.4,1.3,3,2,4.9,2
			H127z"/>
	</g>
	<g id="o6">
		<path fill="#D0D0D0" d="M110.1,97.5c-1.6,2.4-3.6,4.6-5.8,6.8c-2.1,2.2-4.5,4.2-6.8,5.8l14.6,21.9v-0.1c3.7-2.6,7.4-5.5,10.7-9
			c3.5-3.5,6.5-7,9.1-10.8l0,0L110.1,97.5z"/>
		<path fill="#E35C35" d="M113.6,106.1l-7.1,7l7.1,7.1l7.1-7.1L113.6,106.1z"/>
	</g>
	<g id="o7">
		<path fill="#DDDDDD" d="M81,116.9l5,25.9c9.5-1.8,18.2-5.4,26.1-10.8l-14.6-21.9C92.4,113.6,86.9,115.8,81,116.9z"/>
		<path fill="#6CAD6F" d="M89.5,132.7l12.3,0.3l-3.8-9.3L89.5,132.7z"/>
		<path fill="#6CAD6F" d="M99,119.1l-12.3-0.2l3.8,9.2L99,119.1z"/>
	</g>
	<g id="o8">
		<path fill="#D0D0D0" d="M72,144c4.8,0,9.5-0.4,14-1.2l-5-25.9c-2.9,0.5-5.9,0.8-9,0.8c-3,0-6-0.3-8.9-0.8L58,142.7
			C62.5,143.5,67.2,144,72,144z"/>
		<path fill="#6CAD6F" d="M72,124.6c-1.7,0-3.2-0.2-4.7-0.7L72,137l4.7-13.1C75.2,124.4,73.7,124.6,72,124.6z"/>
	</g>
	<g id="o9">
		<path fill="#DDDDDD" d="M46.6,110L32,131.9c7.9,5.5,16.5,9.1,25.9,10.8H58l5.1-25.8H63C57.1,115.8,51.6,113.5,46.6,110z"/>
		<path fill="#C0627A" d="M53.4,122.5c0.3,0.4,0.6,0.7,0.8,1.2l1.3-0.8c-0.3-0.5-0.6-1-1.1-1.5c-1.5-1.5-3.4-2.3-5.4-2.3
			c-0.4,0-0.8,0.1-1.1,0.1l0.2,1.5c0.3,0,0.6,0,0.9,0C50.6,120.7,52.1,121.3,53.4,122.5z"/>
		<path fill="#C0627A" d="M53.5,126.9c0-0.9-0.1-1.7-0.5-2.3c-0.2-0.4-0.5-0.7-0.8-1c-0.8-0.9-2-1.4-3.2-1.4c-0.2,0-0.5,0-0.7,0
			c-0.9,0.2-1.8,0.7-2.5,1.4c-1,0.9-1.4,2-1.4,3.3c0,1.2,0.4,2.3,1.4,3.2c0.8,0.9,1.899,1.3,3.2,1.3c1.2,0,2.3-0.4,3.1-1.3h0.1
			C53.1,129.2,53.5,128.1,53.5,126.9z"/>
	</g>
	<g id="o10">
		<path fill="#D0D0D0" d="M35.6,99.7C35,99,34.5,98.2,34,97.5l-3.4,2.2H35.6z"/>
		<path fill="#D0D0D0" d="M39.4,104c-1.4-1.4-2.6-2.9-3.8-4.3h-5l-18.5,12.4c2.6,3.8,5.5,7.3,9,10.8s7.1,6.4,10.9,9L46.6,110l0,0
			c-2.4-1.6-4.7-3.5-6.9-5.7C39.6,104.2,39.5,104.1,39.4,104z"/>
		<path fill="#6CAD6F" d="M34.8,107c0,0.6,0.2,1.2,0.7,1.6c0.5,0.5,1,0.8,1.6,0.8c0.7,0,1.3-0.3,1.7-0.8c0.5-0.4,0.7-1,0.7-1.6
			s-0.2-1.2-0.7-1.8c-0.4-0.4-1-0.6-1.7-0.6c-0.6,0-1.1,0.2-1.6,0.6C35,105.8,34.8,106.4,34.8,107z"/>
		<path fill="#6CAD6F" d="M40.9,115.4c0.6-0.6,0.9-1.3,0.9-2.2c0-0.8-0.3-1.6-0.9-2.2c-0.6-0.6-1.4-0.9-2.2-0.9
			c-0.8,0-1.6,0.3-2.2,0.9c-0.5,0.6-0.9,1.4-0.9,2.2c0,0.9,0.4,1.6,0.9,2.2c0.6,0.5,1.4,0.8,2.2,0.8
			C39.5,116.2,40.3,115.9,40.9,115.4z"/>
		<path fill="#6CAD6F" d="M36.1,120.9c0-0.8-0.3-1.7-1-2.3c-0.6-0.6-1.3-0.9-2.2-0.9c-0.9,0-1.7,0.3-2.3,0.9
			c-0.6,0.6-0.9,1.5-0.9,2.3c0,1,0.3,1.7,0.9,2.3c0.6,0.7,1.4,0.9,2.3,0.9c0.9,0,1.6-0.2,2.2-0.9C35.8,122.6,36.1,121.9,36.1,120.9z
			"/>
		<path fill="#6CAD6F" d="M25.5,108.9c-0.9-0.9-1.9-1.3-3.1-1.3s-2.2,0.4-3,1.3c-0.9,0.8-1.3,1.9-1.3,3.1c0,1.1,0.4,2.1,1.3,3
			c0.8,0.9,1.8,1.3,3,1.3s2.2-0.4,3.1-1.3s1.3-1.9,1.3-3C26.8,110.8,26.4,109.7,25.5,108.9z"/>
		<path fill="#6CAD6F" d="M25.5,106.5c0,0.8,0.3,1.5,0.7,2c0.601,0.5,1.2,0.7,2,0.7c0.7,0,1.4-0.2,1.9-0.7s0.8-1.2,0.8-2
			c0-0.7-0.3-1.4-0.8-1.9s-1.2-0.7-1.9-0.7c-0.8,0-1.399,0.2-2,0.7C25.8,105.1,25.5,105.8,25.5,106.5z"/>
		<path fill="#6CAD6F" d="M23.4,118.8c0,0.4,0.1,0.8,0.4,1.1c0.3,0.3,0.8,0.5,1.2,0.5s0.8-0.2,1.1-0.5c0.3-0.3,0.5-0.7,0.5-1.1
			c0-0.5-0.2-0.9-0.5-1.2c-0.3-0.4-0.7-0.5-1.1-0.5s-0.9,0.1-1.2,0.5C23.5,117.9,23.4,118.3,23.4,118.8z"/>
	</g>
	<g id="o11">
		<path fill="#DDDDDD" d="M2.2,90.4c2,7.7,5.3,15,9.9,21.7L34,97.5c-3.4-5.1-5.8-10.6-6.9-16.5L1.3,86.1C1.6,87.5,1.9,89,2.2,90.4z"
			/>
		<path fill="#D17335" d="M16.9,103.1c2.3,0,4.2-0.8,5.9-2.5C24.4,99,25.2,97,25.2,94.7c0-2.3-0.8-4.3-2.399-5.9
			c-1.7-1.7-3.601-2.5-5.9-2.5c-2.4,0-4.3,0.8-6,2.5c-1.7,1.6-2.5,3.6-2.5,5.9c0,2.3,0.8,4.3,2.5,5.9
			C12.6,102.3,14.5,103.1,16.9,103.1z"/>
	</g>
	<g id="o12">
		<path fill="#D0D0D0" d="M1.3,86.1L27.1,81c-0.5-3-0.8-6-0.8-9c0-3.1,0.3-6,0.8-8.8L1.3,58c-0.601,3-1,6-1.2,9.2
			C0.1,68.8,0,70.3,0,72C0,76.8,0.5,81.5,1.3,86.1z"/>
		<path fill="#6CAD6F" d="M19.4,72c0-1.6,0.2-3.2,0.7-4.7L7,72l13.1,4.8C19.6,75.3,19.4,73.7,19.4,72z"/>
	</g>
	<g id="o13">
		<path fill="#DDDDDD" d="M6.9,40.8C4.2,46.2,2.4,51.9,1.3,58l0,0l25.8,5.2v-0.1c1.1-6,3.3-11.5,6.8-16.5L12,32
			C10.1,34.8,8.3,37.8,6.9,40.8z"/>
		<path fill="#D0D0D0" d="M24.2,49.3c0-1.9-0.6-3.5-2-4.8c-1.3-1.4-2.899-2-4.8-2l0,0v13.7l0,0c1.9,0,3.5-0.7,4.8-2
			C23.6,52.8,24.2,51.2,24.2,49.3z"/>
		<path fill="#3E7FAE" d="M17.4,56.2V42.5c-1.9,0-3.5,0.7-4.8,2c-1.4,1.3-2,2.9-2,4.8c0,1.9,0.6,3.5,2,4.9
			C13.9,55.5,15.5,56.1,17.4,56.2z"/>
	</g>
	<g id="o14">
		<path fill="#D0D0D0" d="M46.5,33.9L31.9,12.1l0,0c-3.8,2.5-7.3,5.5-10.8,8.9c-3.5,3.5-6.5,7.1-9.1,11l21.9,14.6v-0.1
			c1.6-2.4,3.6-4.7,5.8-7C41.9,37.4,44.1,35.5,46.5,33.9z"/>
		<path fill="#6CAD6F" d="M35.7,31.5l1.8-4l-3.8-2.1l-3.1-3l-3.2,3l-3.8,2.1l1.9,4l0.7,4.3l4.4-0.6l4.4,0.6L35.7,31.5z"/>
	</g>
	<g id="o15">
		<path id="rotateLeft" fill="#DDDDDD" d="M40.9,6.9c-3.1,1.4-6.1,3.2-9,5.2l14.6,21.8c5-3.4,10.5-5.7,16.6-6.9l0,0L58,1.3l0,0
			C51.9,2.4,46.2,4.2,40.9,6.9z"/>
		<path fill="#6CAD6F" d="M50.1,28.5l8.6-9L46.3,19.2L50.1,28.5z"/>
		<path fill="#6CAD6F" d="M49.2,7.8l-8.5,9L53,17.1L49.2,7.8z"/>
	</g>
</g>
</svg>
